<?xml version="1.0" encoding="utf-8"?>
<!-- Generator: Adobe Illustrator 23.0.4, SVG Export Plug-In . SVG Version: 6.00 Build 0)  -->
<svg version="1.1" id="Capa_1" xmlns="http://www.w3.org/2000/svg" xmlns:xlink="http://www.w3.org/1999/xlink" x="0px" y="0px"
	 viewBox="0 0 30 30" style="enable-background:new 0 0 30 30;" xml:space="preserve">
<style type="text/css">
	.st0{fill:none;stroke:#000000;stroke-width:0.75;stroke-miterlimit:10;}
	.st1{fill:none;stroke:#000000;stroke-linecap:round;stroke-linejoin:round;stroke-miterlimit:10;}
</style>
<circle class="st0" cx="19" cy="16" r="5.9"/>
<path d="M21.7,21.5l3.6,3.6c0.5,0.5,1.3,0.5,1.8,0l0,0c0.5-0.5,0.5-1.3,0-1.8l-3.5-3.5"/>
<path d="M23.1,10.2V4c0-1.1-0.9-2.1-2.1-2.1h-8.6L4.2,9.7C4.1,10,4.1,12,4.1,25.2l0,0.8c0,1.1,0.9,2.1,2.1,2.1H21
	c1.1,0,2.1-0.9,2.1-2.1v-2.3l-0.8-0.7v3c0,0.7-0.6,1.3-1.3,1.3H6.2c-0.7,0-1.3-0.6-1.3-1.3l0-0.8c0-4.4,0-13.3,0-15h5.8
	c1.2,0,2.1-0.9,2.1-2.1V2.6H21c0.7,0,1.3,0.6,1.3,1.3v5.8L23.1,10.2z"/>
<polyline class="st1" points="17,16.6 18.3,18 21.2,14.1 "/>
</svg>
