<?xml version="1.0" encoding="utf-8"?>
<!-- Generator: Adobe Illustrator 23.0.4, SVG Export Plug-In . SVG Version: 6.00 Build 0)  -->
<svg version="1.1" id="Capa_1" xmlns="http://www.w3.org/2000/svg" xmlns:xlink="http://www.w3.org/1999/xlink" x="0px" y="0px"
	 viewBox="0 0 30 30" style="enable-background:new 0 0 30 30;" xml:space="preserve">
<style type="text/css">
	.st0{fill:none;stroke:#000000;stroke-width:2;stroke-linecap:round;stroke-linejoin:round;stroke-miterlimit:10;}
	.st1{fill:none;stroke:#000000;stroke-linecap:round;stroke-linejoin:round;stroke-miterlimit:10;}
</style>
<g>
	<polyline class="st0" points="11.5,4.2 28.4,4.2 28.4,19.4 11.3,19.4 	"/>
	<path d="M21.1,4.6l-1.9,0c-0.5,0-1-0.4-1-1v0c0-0.5,0.4-1,1-1l1.9,0c0.5,0,1,0.4,1,1v0C22.1,4.1,21.6,4.6,21.1,4.6z"/>
	<polyline class="st1" points="15,26.6 20,21.7 25.1,26.6 	"/>
	<path d="M3.9,9.4l-1.7,0c-0.8,0-1.5,0.7-1.5,1.5l0,6.2c0,0.8,0.7,1.5,1.5,1.5h0l0,7.5c0,0.7,0.6,1.3,1.3,1.3h0
		c0.7,0,1.3-0.6,1.3-1.3v0v0c0,0.7,0.6,1.3,1.3,1.3l0.3,0c0.7,0,1.3-0.6,1.3-1.3l0-14l5.8,0c0.7,0,1.3-0.6,1.3-1.3v0
		c0-0.7-0.6-1.3-1.3-1.3l-7.5,0l-1,1.5L3.9,9.4z"/>
	<ellipse transform="matrix(0.9991 -4.311402e-02 4.311402e-02 0.9991 -0.2519 0.2157)" cx="4.9" cy="5.9" rx="2.8" ry="2.8"/>
</g>
</svg>
