<?xml version="1.0" encoding="utf-8"?>
<!-- Generator: Adobe Illustrator 23.0.4, SVG Export Plug-In . SVG Version: 6.00 Build 0)  -->
<svg version="1.1" id="Capa_1" xmlns="http://www.w3.org/2000/svg" xmlns:xlink="http://www.w3.org/1999/xlink" x="0px" y="0px"
	 viewBox="0 0 30 30" style="enable-background:new 0 0 30 30;" xml:space="preserve">
<style type="text/css">
	.st0{fill:none;stroke:#000000;stroke-miterlimit:10;}
</style>
<g>
	<path d="M14.5,14.4c0-0.3,0.1-0.6,0.2-0.9s0.3-0.5,0.4-0.7c0.2-0.2,0.4-0.4,0.6-0.6s0.4-0.4,0.6-0.6c0.2-0.2,0.3-0.4,0.4-0.7
		c0.1-0.2,0.2-0.5,0.2-0.9c0-0.5-0.2-1-0.5-1.3c-0.3-0.3-0.7-0.5-1.3-0.5c-0.5,0-1,0.2-1.3,0.5c-0.3,0.3-0.6,0.7-0.7,1.3l-1-0.1
		c0.1-0.8,0.5-1.4,1-1.8c0.5-0.4,1.2-0.6,1.9-0.6c0.4,0,0.8,0.1,1.1,0.2c0.3,0.1,0.6,0.3,0.9,0.5c0.2,0.2,0.4,0.5,0.6,0.8
		c0.1,0.3,0.2,0.7,0.2,1.1c0,0.4-0.1,0.8-0.2,1.1c-0.1,0.3-0.3,0.5-0.5,0.8c-0.2,0.2-0.4,0.4-0.6,0.6c-0.2,0.2-0.4,0.4-0.6,0.6
		c-0.2,0.2-0.3,0.4-0.5,0.7c-0.1,0.2-0.2,0.5-0.2,0.9v1h-0.9V14.4z M14.3,17.9c0-0.2,0.1-0.4,0.2-0.5c0.1-0.1,0.3-0.2,0.5-0.2
		c0.2,0,0.4,0.1,0.5,0.2c0.1,0.1,0.2,0.3,0.2,0.5s-0.1,0.4-0.2,0.5c-0.1,0.1-0.3,0.2-0.5,0.2c-0.2,0-0.4-0.1-0.5-0.2
		C14.3,18.2,14.3,18.1,14.3,17.9z"/>
</g>
<polygon class="st0" points="28.2,3.9 1.8,3.9 1.8,21.8 5.9,21.8 5.9,26.1 11.3,21.8 28.2,21.8 "/>
</svg>
