<?xml version="1.0" encoding="utf-8"?>
<!-- Generator: Adobe Illustrator 21.0.2, SVG Export Plug-In . SVG Version: 6.00 Build 0)  -->
<svg version="1.1" id="Capa_1" xmlns="http://www.w3.org/2000/svg" xmlns:xlink="http://www.w3.org/1999/xlink" x="0px" y="0px"
	 viewBox="0 0 86.8 90" style="enable-background:new 0 0 86.8 90;" xml:space="preserve">
<style type="text/css">
	.st0{fill:#8D521A;}
</style>
<g>
	<g>
		<path class="st0" d="M44.2,17.7c-7.3,0-13.3,5.9-13.3,13.3c0,2.1,0.5,4.2,1.4,6c2.2,4.3,6.7,7.3,11.9,7.3
			c7.3,0,13.3-5.9,13.3-13.3S51.5,17.7,44.2,17.7z M44.2,40.2c-3.5,0-6.7-2-8.3-5.1c-0.7-1.3-1-2.7-1-4.2c0-5.1,4.2-9.3,9.3-9.3
			c5.1,0,9.3,4.2,9.3,9.3S49.3,40.2,44.2,40.2z"/>
	</g>
	<g>
		<path class="st0" d="M62.2,65.3c7.7-7.9,15-18.9,15-32.4c0-18.2-14.8-33-33-33c-5.3,0-10.4,1.3-14.8,3.5
			C18.6,8.8,11.2,20,11.2,32.9c0,13.4,7.2,24.3,14.9,32.2C10.7,67.1,0,71.7,0,77c0,7.2,19.4,13,43.4,13s43.4-5.8,43.4-13
			C86.8,71.9,76.7,67.4,62.2,65.3z M15.2,32.9c0-11,6.1-21,16-25.9c4.1-2,8.4-3.1,13-3.1c16,0,29,13,29,29
			c0,13.5-8.2,24.4-16.2,31.8c-1.4,1.3-2.9,2.6-4.2,3.7c-3.5,2.9-6.7,4.9-8.6,6.1c-1.9-1.2-5.1-3.2-8.7-6.1
			c-1.4-1.1-2.8-2.4-4.3-3.7C23.3,57.1,15.2,46.3,15.2,32.9z M72.5,82.5C64.7,84.8,54.4,86,43.4,86c-11,0-21.3-1.2-29.1-3.5
			C6,80.1,4,77.5,4,77c0.1-0.5,2-3.1,10.3-5.5c4.5-1.3,9.8-2.3,15.5-2.8C37.3,75.4,44.2,79,44.2,79s6.8-3.6,14.2-10.2
			c5.2,0.6,10,1.5,14.1,2.7c8.2,2.4,10.2,5,10.3,5.5C82.8,77.5,80.8,80.1,72.5,82.5z"/>
	</g>
</g>
</svg>
