<?xml version="1.0" encoding="utf-8"?>
<!-- Generator: Adobe Illustrator 21.0.2, SVG Export Plug-In . SVG Version: 6.00 Build 0)  -->
<svg version="1.1" id="Capa_1" xmlns="http://www.w3.org/2000/svg" xmlns:xlink="http://www.w3.org/1999/xlink" x="0px" y="0px"
	 viewBox="0 0 90.1 63.4" style="enable-background:new 0 0 90.1 63.4;" xml:space="preserve">
<style type="text/css">
	.st0{fill:#8D521A;}
</style>
<g>
	<path class="st0" d="M90.1,2.9c0-1.6-1.3-2.9-2.9-2.9c0,0,0,0,0,0L2.9,0C1.3,0,0,1.3,0,2.9l0,57.6c0,1.6,1.3,2.9,2.9,2.9
		c0,0,0,0,0,0l84.3,0c1.6,0,2.9-1.3,2.9-2.9L90.1,2.9z M4,59.5L4,4l82.1,0l0,55.4L4,59.5z"/>
	<path class="st0" d="M78.1,14.8l-2.8-2.9L55.9,30.3L53,33.1l-0.2,0.2c-4.4,4.1-11.2,4.1-15.6,0l-0.2-0.2l-2.9-2.8L14.7,11.9
		L12,14.8L31.2,33L12,49.9l2.7,3l19.4-17.2l0.4,0.4c3,2.8,6.7,4.2,10.5,4.2c3.8,0,7.6-1.4,10.5-4.2l0.4-0.4l19.4,17.2l2.6-3L59,33
		L78.1,14.8z"/>
</g>
</svg>
