<?xml version="1.0" encoding="utf-8"?>
<!-- Generator: Adobe Illustrator 23.0.4, SVG Export Plug-In . SVG Version: 6.00 Build 0)  -->
<svg version="1.1" id="Capa_1" xmlns="http://www.w3.org/2000/svg" xmlns:xlink="http://www.w3.org/1999/xlink" x="0px" y="0px"
	 viewBox="0 0 30 30" style="enable-background:new 0 0 30 30;" xml:space="preserve">
<g>
	<g>
		<path d="M26.4,19.5l-1.5-0.6c0.4-1.2,0.7-2.4,0.7-3.7c0-5.8-4.7-10.5-10.5-10.5c-2.5,0-4.9,0.9-6.8,2.5l-1-1.2
			c2.2-1.9,5-2.9,7.8-2.9c6.7,0,12.1,5.4,12.1,12.1C27.1,16.7,26.9,18.1,26.4,19.5z"/>
	</g>
	<g>
		<g>
			<polygon points="24.4,15.1 25.8,18.7 29.4,17.4 28.5,19.5 24.8,20.8 23.5,17.2 			"/>
		</g>
	</g>
</g>
<g>
	<g>
		<path d="M15.1,27.3C8.4,27.3,3,21.9,3,15.2c0-1.1,0.2-2.3,0.5-3.4L5,12.3c-0.3,0.9-0.4,1.9-0.4,2.9c0,5.8,4.7,10.5,10.5,10.5
			c2.4,0,4.6-0.8,6.5-2.3l1,1.3C20.4,26.4,17.8,27.3,15.1,27.3z"/>
	</g>
	<g>
		<g>
			<polygon points="5.7,16.1 4.1,12.5 0.6,14.2 1.4,12 4.9,10.4 6.5,13.9 			"/>
		</g>
	</g>
</g>
<g>
	<path d="M15.1,9.7c1.2,0,2.2,1,2.2,2.2s-1,2.2-2.2,2.2s-2.2-1-2.2-2.2S13.9,9.7,15.1,9.7 M15.1,8.9c-1.6,0-3,1.3-3,3s1.3,3,3,3
		c1.6,0,3-1.3,3-3S16.8,8.9,15.1,8.9L15.1,8.9z"/>
</g>
<g>
	<path d="M15.8,16c1.9,0,3.6,1.5,3.8,3.3h-9.1c0.2-1.9,1.9-3.3,3.8-3.3H15.8 M15.8,15.2h-1.5c-2.6,0-4.6,2.1-4.6,4.6v0.3h10.7v-0.3
		C20.5,17.3,18.4,15.2,15.8,15.2L15.8,15.2z"/>
</g>
</svg>
