<?xml version="1.0" encoding="utf-8"?>
<!-- Generator: Adobe Illustrator 21.0.2, SVG Export Plug-In . SVG Version: 6.00 Build 0)  -->
<svg version="1.1" id="Capa_1" xmlns="http://www.w3.org/2000/svg" xmlns:xlink="http://www.w3.org/1999/xlink" x="0px" y="0px"
	 viewBox="0 0 65.9 90" style="enable-background:new 0 0 65.9 90;" xml:space="preserve">
<style type="text/css">
	.st0{fill:#8D521A;}
</style>
<g>
	<path class="st0" d="M48.3,58.8c-3.3,0-6.2,1.9-7.6,6.5c-0.3,1-0.9,1.5-1.8,1.5c-4.7,0-16-13.8-19.2-22.6c-2.1-5.8-7-20.7,7.8-20.7
		c0,0,0,0,0,0c0,0,0,0,0,0C40.9,23.5,33.3,0,19.8,0c-2.2,0-4.6,0.6-7.1,2.1C-4.9,12.6-3.5,38.3,12.6,65.2
		c9.5,15.9,24.2,24.9,35.2,24.9c1.2,0,2.3-0.1,3.3-0.3C79.3,84.6,60.7,58.8,48.3,58.8z M50.4,85.9c-0.8,0.2-1.7,0.2-2.6,0.2
		c-8.7,0-22.3-7.2-31.8-23C8.3,50.3,4.2,38,4,27.5C3.9,20.5,5.7,11,14.7,5.6c1.7-1,3.4-1.6,5-1.6c6.1,0,10.8,7.5,10.8,12.3
		c0,1.1-0.2,2-0.7,2.5c-0.4,0.5-1.2,0.7-2.4,0.7c-5.5,0-9.6,1.8-12,5.2c-4.2,6-1.8,14.7,0.5,20.8c1.7,4.6,5.3,10.5,9.8,15.8
		c5.3,6.2,9.7,9.4,13.2,9.4c2.7,0,4.8-1.7,5.6-4.3c1.1-3.7,3-3.7,3.8-3.7c5.1,0,13,7.1,13.6,13.8C62.2,79.8,60.4,84,50.4,85.9z"/>
</g>
</svg>
