<?xml version="1.0" encoding="utf-8"?>
<!-- Generator: Adobe Illustrator 21.0.2, SVG Export Plug-In . SVG Version: 6.00 Build 0)  -->
<svg version="1.1" id="Capa_1" xmlns="http://www.w3.org/2000/svg" xmlns:xlink="http://www.w3.org/1999/xlink" x="0px" y="0px"
	 viewBox="0 0 90.1 90" style="enable-background:new 0 0 90.1 90;" xml:space="preserve">
<style type="text/css">
	.st0{fill:#8D521A;}
</style>
<g>
	<g>
		<path class="st0" d="M45.1,3.9c22.6,0,41.1,18.4,41.1,41.1c0,11-4.3,21.3-12,29c-7.8,7.8-18.1,12-29.1,12C22.4,86.1,4,67.7,4,45
			c0-11,4.3-21.3,12-29C23.8,8.2,34.1,3.9,45.1,3.9L45.1,3.9L45.1,3.9 M45.1-0.1C45.1-0.1,45.1-0.1,45.1-0.1C20.2-0.1,0,20.1,0,45
			c0,24.9,20.2,45.1,45.1,45.1c0,0,0,0,0,0C70,90.1,90.2,69.9,90.1,45C90.1,20.1,70-0.1,45.1-0.1L45.1-0.1z"/>
	</g>
	<g>
		<polygon class="st0" points="45.3,47.8 26.5,32.7 29,29.6 44.8,42.2 67.8,15.9 70.8,18.6 		"/>
	</g>
</g>
</svg>
