<?xml-stylesheet href="style.css" type="text/css"?>

<svg xmlns:svg="http://www.w3.org/2000/svg" xmlns="http://www.w3.org/2000/svg" width="200" height="200" viewBox="0 0 132.3 132.3" version="1.1">
  <style type="text/css">
        <![CDATA[
        .send-icon {
            fill:#000;
        }
        .send-icon:hover {
            fill:#d9534f;
        }
        ]]>
    </style>
    <g transform="translate(0,-164.70834)">
        <path class="send-icon" d="m106.2 193.2c-0.6-0.5-1.4-0.5-2.1-0.3l-77.6 32.2c-0.8 0.3-1.3 1.1-1.3 2 0 0.9 0.5 1.7 1.3 2l25.3 10.9 2.7 27.1c0.1 0.9 0.7 1.6 1.5 1.9 0.2 0.1 0.4 0.1 0.6 0.1 0.7 0 1.3-0.3 1.7-0.8l14.1-17.6 25.6 12.1c0.6 0.3 1.4 0.3 2-0.1 0.6-0.4 1-1 1.1-1.7l5.9-65.8c0.1-0.8-0.3-1.5-0.9-1.9zM32.9 227.1 94.8 201.5 54.6 236.4Zm23.1 11.1c0-0.1 0-0.1 0-0.2l39.8-34.5-34.4 38.2-3.4 15.8zm7.1 5.6 6.6 3.3-10 12.5zm34 13.6-24.4-11.5c-0.3-0.1-0.6-0.2-0.9-0.2l-7.7-3.9 38.2-42.5z" stroke-width="0.1"/>
    </g>
</svg>
</svg>