<?xml version="1.0" encoding="utf-8"?>
<?xml-stylesheet href="../style.css" type="text/css"?>
<!-- Generator: Adobe Illustrator 21.0.2, SVG Export Plug-In . SVG Version: 6.00 Build 0)  -->
<svg version="1.1" id="Capa_1" class="icono-gps" xmlns="http://www.w3.org/2000/svg" xmlns:xlink="http://www.w3.org/1999/xlink" x="0px" y="0px"
	 viewBox="0 0 86.8 90" style="enable-background:new 0 0 86.8 90;" xml:space="preserve">
<style type="text/css">
	<!-- .st0{fill:none;} -->
	<!-- .st1{fill:#FFFFFF;} -->
	<!-- .st2{fill:#000;} -->
</style> 
<g class="icono-gps1">
	<path class="st0" d="M45.4,79.7l-1.3,1l-1.3-1c-0.5-0.4-6.5-5.1-13.1-12.1c-5.5,0.6-10.6,1.4-14.9,2.6c-8.3,2.3-10.5,4.9-10.5,6.1
		c0,3.8,15.2,9.4,39.1,9.4c0,0,0,0,0.1,0c10.8,0,21-1.2,28.6-3.3c8.3-2.3,10.5-4.9,10.5-6.1c0-3-9.2-7-24.3-8.6
		C51.8,74.6,46,79.3,45.4,79.7z"/>
	<path class="st0" d="M71.7,28.9C69.4,17.6,62.8,4.2,44.1,4.2c0,0,0,0,0,0c-8.8,0-17.4,3.5-22.8,9.3c-4.8,5.2-7.1,12-6.5,19.7
		c0.8,10.5,8.9,21.6,16.5,29.9c1.3,1.4,2.6,2.8,3.9,4c3.8,3.8,7.1,6.6,8.9,8.1c1.7-1.4,5-4.3,8.6-8c1.2-1.2,2.5-2.6,3.8-4
		C65,53.8,74,40.6,71.7,28.9z M43.4,43.8C43.4,43.8,43.4,43.8,43.4,43.8c-7.6,0-13.7-6.1-13.7-13.7c0-7.6,6.1-13.7,13.7-13.7
		c0,0,0,0,0,0c7.6,0,13.7,6.1,13.7,13.7C57.1,37.7,51,43.8,43.4,43.8z"/>
	<path class="st1" d="M43.4,20.7L43.4,20.7c-5.2,0-9.4,4.2-9.4,9.4c0,5.2,4.2,9.4,9.4,9.4h0c5.2,0,9.4-4.2,9.4-9.4
		C52.8,24.9,48.6,20.7,43.4,20.7z"/>
	<path class="st2" d="M61.7,63.9c8.5-10,16.7-23.3,14.2-35.8C72.3,9.9,61-0.1,44.1-0.1c0,0,0,0,0,0c-10,0-19.7,4-25.9,10.7
		c-5.7,6.1-8.3,14.1-7.6,23c0.8,10.7,8.1,21.6,15.5,30.1c-4.6,0.6-8.8,1.4-12.5,2.4C4.7,68.7,0,72.2,0,76.4c0,9,21.8,13.7,43.4,13.7
		c0,0,0,0,0.1,0c11.2,0,21.8-1.2,29.8-3.5c8.9-2.5,13.7-6,13.6-10.2C86.8,70,75.8,65.8,61.7,63.9z M14.8,33.3
		c-0.6-7.7,1.6-14.5,6.5-19.7c5.4-5.9,13.9-9.3,22.8-9.3c0,0,0,0,0,0c18.7,0,25.4,13.4,27.6,24.7C74,40.6,65,53.8,56.5,63.3
		c-1.3,1.4-2.5,2.7-3.8,4c-3.7,3.7-6.9,6.6-8.6,8c-1.8-1.5-5.1-4.3-8.9-8.1c-1.2-1.2-2.5-2.6-3.9-4C23.7,54.9,15.6,43.8,14.8,33.3z
		 M72,82.5c-7.6,2.1-17.8,3.3-28.6,3.3c0,0,0,0-0.1,0c-23.9,0-39.1-5.6-39.1-9.4c0-1.2,2.2-3.8,10.5-6.1c4.3-1.2,9.3-2.1,14.9-2.6
		c6.6,7,12.6,11.6,13.1,12.1l1.3,1l1.3-1c0.6-0.5,6.4-5.1,12.8-12c15.2,1.7,24.3,5.7,24.3,8.6C82.6,77.5,80.3,80.1,72,82.5z"/>
	<path class="st2" d="M43.4,16.4C43.4,16.4,43.4,16.4,43.4,16.4c-7.6,0-13.7,6.2-13.7,13.7c0,7.6,6.1,13.7,13.7,13.7c0,0,0,0,0,0
		c7.6,0,13.7-6.2,13.7-13.7C57.1,22.6,50.9,16.4,43.4,16.4z M43.4,39.6L43.4,39.6c-5.2,0-9.4-4.2-9.4-9.4c0-5.2,4.2-9.4,9.4-9.4h0
		c5.2,0,9.4,4.2,9.4,9.4C52.8,35.3,48.6,39.6,43.4,39.6z"/>
</g>
</svg>
